<svg width="25" height="25" viewBox="0 0 25 25" fill="none" xmlns="http://www.w3.org/2000/svg">
<path d="M14.6165 22.3481C15.9098 22.12 17.1454 21.6395 18.253 20.9339C19.3606 20.2283 20.3183 19.3115 21.0715 18.2358C21.8248 17.16 22.3587 15.9465 22.643 14.6644C22.9272 13.3823 22.9561 12.0568 22.7281 10.7635C22.5 9.47025 22.0195 8.23456 21.3139 7.127C20.6083 6.01945 19.6915 5.06171 18.6158 4.30848C17.54 3.55525 16.3265 3.02127 15.0444 2.73704C13.7623 2.45281 12.4368 2.42388 11.1435 2.65192C9.85026 2.87996 8.61457 3.36049 7.50701 4.06609C6.39945 4.77168 5.44172 5.68851 4.68849 6.76424C3.93526 7.83996 3.40128 9.05352 3.11705 10.3356C2.83282 11.6177 2.80389 12.9432 3.03193 14.2365C3.25997 15.5298 3.7405 16.7654 4.4461 17.873C5.15169 18.9806 6.06852 19.9383 7.14425 20.6915C8.21997 21.4448 9.43352 21.9787 10.7156 22.263C11.9977 22.5472 13.3232 22.5761 14.6165 22.3481L14.6165 22.3481Z" stroke="#696F8C" stroke-width="1.6"/>
<path d="M12.88 12.5L12.88 18.5" stroke="#696F8C" stroke-width="1.6" stroke-linecap="round"/>
<path d="M12.88 7.5L12.88 6.5" stroke="#696F8C" stroke-width="1.6" stroke-linecap="round"/>
</svg>
