<svg width="24" height="25" viewBox="0 0 24 25" fill="none" xmlns="http://www.w3.org/2000/svg">
<path d="M15.3335 15.8334V9.16673M15.3335 9.16673H8.66687M15.3335 9.16673L8.66687 15.8333M7.33333 22.5H16.6667C18.5335 22.5 19.4669 22.5 20.18 22.1367C20.8072 21.8171 21.3171 21.3072 21.6367 20.68C22 19.9669 22 19.0335 22 17.1667V7.83333C22 5.96649 22 5.03307 21.6367 4.32003C21.3171 3.69282 20.8072 3.18289 20.18 2.86331C19.4669 2.5 18.5335 2.5 16.6667 2.5H7.33333C5.46649 2.5 4.53307 2.5 3.82003 2.86331C3.19282 3.18289 2.68289 3.69282 2.36331 4.32003C2 5.03307 2 5.96649 2 7.83333V17.1667C2 19.0335 2 19.9669 2.36331 20.68C2.68289 21.3072 3.19282 21.8171 3.82003 22.1367C4.53307 22.5 5.46649 22.5 7.33333 22.5Z" stroke="#696F8C" stroke-width="1.6" stroke-linecap="round" stroke-linejoin="round"/>
</svg>
