<svg width="40" height="41" viewBox="0 0 40 41" fill="none" xmlns="http://www.w3.org/2000/svg">
<g clip-path="url(#clip0_305_2220)">
<path d="M40 20.5C40 24.4556 38.827 28.3224 36.6294 31.6114C34.4318 34.9004 31.3082 37.4638 27.6537 38.9776C23.9992 40.4913 19.9778 40.8874 16.0982 40.1157C12.2186 39.344 8.65492 37.4392 5.85787 34.6421C3.06082 31.8451 1.15601 28.2814 0.384303 24.4018C-0.387401 20.5222 0.0086656 16.5009 1.52242 12.8463C3.03617 9.19181 5.59962 6.06824 8.8886 3.87061C12.1776 1.67298 16.0444 0.5 20 0.5C25.3043 0.5 30.3914 2.60714 34.1421 6.35786C37.8929 10.1086 40 15.1957 40 20.5Z" fill="#F7931A"/>
<path fill-rule="evenodd" clip-rule="evenodd" d="M14.2145 9.63261L18.8108 10.8635L19.8381 7.03442L22.1363 7.65806L21.149 11.329L23.0235 11.8326L24.0126 8.1217L26.3508 8.74715L25.3435 12.4781C25.3435 12.4781 29.1617 13.3235 30.0599 16.429C30.9581 19.5344 28.0854 21.1653 27.1981 21.2271C27.1981 21.2271 30.5435 23.0617 29.3945 26.6708C28.2454 30.2799 24.7181 30.9253 21.0072 30.0981L19.9999 33.9671L17.6617 33.3417L18.689 29.5326L16.8345 29.0271L15.8072 32.8635L13.4872 32.2399L14.5163 28.4217L9.7981 27.149L10.9872 24.509C10.9872 24.509 12.3181 24.8726 12.8217 24.9926C13.3254 25.1126 13.649 24.589 13.7908 24.0653C13.9326 23.5417 16.069 14.8635 16.2708 14.149C16.4726 13.4344 16.3908 12.8762 15.5435 12.6562C14.6963 12.4362 13.5435 12.0926 13.5435 12.0926L14.2145 9.63261ZM18.8508 21.1253L17.5781 26.1853C17.5781 26.1853 23.889 28.4635 24.6963 25.2581C25.5035 22.0526 18.8508 21.1253 18.8508 21.1253ZM19.4363 18.7253L20.6854 14.089C20.6854 14.089 26.089 15.0562 25.4235 17.6362C24.7581 20.2162 21.5726 19.2272 19.4363 18.7253Z" fill="white"/>
</g>
<defs>
<clipPath id="clip0_305_2220">
<rect width="40" height="40" fill="white" transform="translate(0 0.5)"/>
</clipPath>
</defs>
</svg>
