<svg width="40" height="40" viewBox="0 0 40 40" fill="none" xmlns="http://www.w3.org/2000/svg">
<g clip-path="url(#clip0_305_2228)">
<path d="M20 40C31.0457 40 40 31.0457 40 20C40 8.9543 31.0457 0 20 0C8.9543 0 0 8.9543 0 20C0 31.0457 8.9543 40 20 40Z" fill="#0D1E30"/>
<g filter="url(#filter0_d_305_2228)">
<path d="M19.6562 7.57497C20.2549 7.26622 20.9862 7.97997 20.6687 8.56872C20.4824 9.04872 19.7812 9.17622 19.4237 8.80997C19.0449 8.45997 19.1687 7.76497 19.6562 7.57372V7.57497ZM13.2124 8.25747C13.5762 8.10997 14.0374 8.43747 13.9999 8.82872C14.0374 9.25122 13.5124 9.56372 13.1412 9.36247C12.6499 9.17497 12.7062 8.38997 13.2124 8.25747V8.25747ZM26.4099 9.37372C25.8412 9.30622 25.7512 8.42622 26.2974 8.24872C26.7224 8.04622 27.1124 8.42747 27.1749 8.82372C27.0849 9.16122 26.7974 9.47122 26.4099 9.37372V9.37372ZM14.6787 10.955C15.2874 10.5762 16.1549 11.14 16.0612 11.8362C16.0299 12.5375 15.0824 12.945 14.5474 12.47C14.0299 12.0975 14.1087 11.2425 14.6787 10.955ZM23.9662 11.3575C24.2374 10.67 25.3374 10.6475 25.6462 11.3175C25.9524 11.8387 25.5762 12.485 25.0324 12.6625C24.3112 12.795 23.6274 12.0275 23.9662 11.3575ZM18.8799 12.6237C18.8737 12.0312 19.4212 11.5912 19.9924 11.55C20.3724 11.625 20.7849 11.7837 20.9474 12.16C21.2512 12.68 20.9812 13.3937 20.4349 13.6325C20.1849 13.77 19.8874 13.7187 19.6149 13.7025C19.1987 13.5025 18.8474 13.1062 18.8799 12.6237ZM9.29743 13.4862C9.85368 13.1487 10.6037 13.7612 10.3924 14.3562C10.2774 14.87 9.57493 15.0787 9.17368 14.7512C8.74493 14.4437 8.81243 13.705 9.29868 13.485L9.29743 13.4862ZM29.8749 13.4837C30.3462 13.1237 31.1249 13.5375 31.0674 14.1225C31.0999 14.6562 30.4262 15.06 29.9587 14.785C29.4437 14.5562 29.3899 13.7762 29.8749 13.485V13.4837ZM21.5749 14.5475C22.3524 14.2725 23.2774 14.6012 23.7199 15.285C24.3049 16.1187 23.9949 17.3887 23.0862 17.8675C22.1462 18.4337 20.7724 17.955 20.4237 16.92C20.0299 15.995 20.6049 14.8375 21.5737 14.5475H21.5749ZM17.0087 14.6387C17.8712 14.2387 19.0324 14.5737 19.4487 15.4412C19.9387 16.2862 19.5599 17.4625 18.6837 17.8987C17.8062 18.39 16.5674 18.0175 16.1437 17.1112C15.6674 16.2337 16.0899 15.0425 17.0087 14.6387V14.6387ZM12.4374 16.175C12.5037 15.6287 13.0274 15.2725 13.5562 15.235C13.8319 15.2641 14.0896 15.3859 14.2872 15.5805C14.4847 15.7751 14.6104 16.0309 14.6437 16.3062C14.6062 16.8687 14.1649 17.4162 13.5599 17.4137C12.8937 17.47 12.3099 16.8175 12.4374 16.175V16.175ZM25.9399 15.355C26.6237 14.9637 27.5724 15.5325 27.5424 16.305C27.5887 17.1237 26.5387 17.7 25.8587 17.22C25.1512 16.82 25.2062 15.695 25.9399 15.355ZM15.1524 18.2387C15.9499 18.0225 16.8649 18.3925 17.2562 19.115C17.6849 19.8425 17.5099 20.8525 16.8437 21.3875C15.9874 22.17 14.4112 21.855 13.9562 20.7875C13.4324 19.8087 14.0687 18.4962 15.1512 18.2375L15.1524 18.2387ZM23.8112 18.235C24.5874 18.0162 25.4999 18.31 25.9174 19.0062C26.4699 19.8025 26.2062 20.9912 25.3849 21.5037C24.5224 22.1 23.1899 21.7875 22.7149 20.855C22.1399 19.8912 22.7187 18.5287 23.8112 18.235V18.235ZM10.0112 19.1425C10.7012 18.8862 11.4662 19.635 11.1862 20.3087C11.0162 20.9212 10.1374 21.1487 9.68368 20.6962C9.15243 20.2712 9.34868 19.3275 10.0112 19.1425V19.1425ZM28.7224 20.12C28.7095 19.8448 28.8057 19.5756 28.9901 19.3711C29.1746 19.1665 29.4324 19.043 29.7074 19.0275C30.1799 19.1025 30.6399 19.4775 30.6024 19.9837C30.6462 20.6525 29.8274 21.1062 29.2474 20.7925C28.9762 20.6562 28.8374 20.3825 28.7224 20.12ZM6.61743 19.475C7.03243 19.2962 7.54618 19.65 7.45118 20.1037C7.42868 20.6175 6.65743 20.8162 6.37493 20.3862C6.12493 20.0875 6.27493 19.6287 6.61743 19.4737V19.475ZM32.8037 19.4637C33.0962 19.26 33.5662 19.4062 33.6812 19.7425C33.8774 20.11 33.5174 20.6125 33.0974 20.5512C32.5074 20.6037 32.3174 19.72 32.8037 19.4637ZM17.4074 21.93C18.4999 21.6512 19.6749 22.5475 19.6824 23.655C19.7524 24.7737 18.5949 25.765 17.4774 25.5075C16.6124 25.37 15.9337 24.55 15.9624 23.6912C15.9599 22.8687 16.5899 22.1037 17.4074 21.93V21.93ZM21.7349 21.9287C22.8437 21.6237 24.0537 22.5362 24.0362 23.6687C24.0949 24.7662 22.9737 25.725 21.8787 25.5062C20.8474 25.3762 20.0874 24.2625 20.3749 23.2775C20.5199 22.6225 21.0774 22.09 21.7349 21.9275V21.9287ZM13.3899 22.61C14.1574 22.4812 14.8774 23.3225 14.5662 24.04C14.3387 24.805 13.2087 25.0112 12.7087 24.3875C12.1237 23.7875 12.5612 22.6925 13.3899 22.61V22.61ZM26.0824 22.6437C26.7674 22.3612 27.6074 22.9437 27.5549 23.675C27.5824 24.4787 26.5449 25.0337 25.8762 24.5637C25.1174 24.1425 25.2562 22.9012 26.0824 22.6437V22.6437ZM29.6299 26.1437C29.3624 25.6525 29.8487 25.0012 30.4049 25.0925C30.6799 25.0875 30.8737 25.3012 31.0499 25.4812C31.0862 25.7725 31.1474 26.12 30.9012 26.3437C30.5674 26.76 29.8112 26.6412 29.6299 26.1437V26.1437ZM9.29493 25.2287C9.81368 24.89 10.5599 25.3962 10.4424 25.9912C10.3799 26.52 9.70493 26.8212 9.26118 26.5212C8.78368 26.25 8.80118 25.4762 9.29493 25.2287V25.2287ZM19.5362 26.3325C20.2149 26.0387 21.0799 26.62 21.0149 27.355C21.0649 28.1675 19.9962 28.73 19.3324 28.2425C18.5949 27.8237 18.7187 26.5912 19.5362 26.3325V26.3325ZM14.7937 27.4212C15.3712 27.1225 16.1462 27.6387 16.0937 28.2762C16.1112 28.7987 15.5937 29.2437 15.0687 29.1662C14.6349 29.1575 14.3524 28.7737 14.2124 28.41C14.2199 28.0137 14.3862 27.5725 14.7937 27.4225V27.4212ZM24.4012 27.4312C24.9962 27.0687 25.8412 27.5887 25.7849 28.2687C25.7999 28.9812 24.8449 29.4362 24.2912 28.9687C23.7562 28.6025 23.8212 27.7225 24.4012 27.4312ZM26.0724 31.4937C25.8074 31.1012 26.1187 30.6275 26.5474 30.5375C26.8937 30.6062 27.2599 30.8625 27.1862 31.255C27.1362 31.7887 26.3437 31.9512 26.0724 31.495V31.4937ZM12.8087 31.1525C12.9137 30.84 13.1687 30.5312 13.5424 30.6125C14.0862 30.65 14.2474 31.4575 13.7712 31.7062C13.3437 31.99 12.8462 31.6012 12.8087 31.1525ZM19.2087 31.5112C19.3124 31.0487 19.9187 30.825 20.3187 31.07C20.5837 31.1825 20.6612 31.4725 20.7287 31.72C20.693 31.8485 20.6597 31.9777 20.6287 32.1075C20.4649 32.2975 20.2537 32.4887 19.9812 32.4825C19.4749 32.5412 19.0174 31.9775 19.2074 31.5112H19.2087Z" fill="black"/>
</g>
<path d="M19.6562 7.57497C20.2549 7.26622 20.9862 7.97997 20.6687 8.56872C20.4824 9.04872 19.7812 9.17622 19.4237 8.80997C19.0449 8.45997 19.1687 7.76497 19.6562 7.57372V7.57497ZM13.2124 8.25747C13.5762 8.10997 14.0374 8.43747 13.9999 8.82872C14.0374 9.25122 13.5124 9.56372 13.1412 9.36247C12.6499 9.17497 12.7062 8.38997 13.2124 8.25747V8.25747ZM26.4099 9.37372C25.8412 9.30622 25.7512 8.42622 26.2974 8.24872C26.7224 8.04622 27.1124 8.42747 27.1749 8.82372C27.0849 9.16122 26.7974 9.47122 26.4099 9.37372V9.37372ZM14.6787 10.955C15.2874 10.5762 16.1549 11.14 16.0612 11.8362C16.0299 12.5375 15.0824 12.945 14.5474 12.47C14.0299 12.0975 14.1087 11.2425 14.6787 10.955ZM23.9662 11.3575C24.2374 10.67 25.3374 10.6475 25.6462 11.3175C25.9524 11.8387 25.5762 12.485 25.0324 12.6625C24.3112 12.795 23.6274 12.0275 23.9662 11.3575ZM18.8799 12.6237C18.8737 12.0312 19.4212 11.5912 19.9924 11.55C20.3724 11.625 20.7849 11.7837 20.9474 12.16C21.2512 12.68 20.9812 13.3937 20.4349 13.6325C20.1849 13.77 19.8874 13.7187 19.6149 13.7025C19.1987 13.5025 18.8474 13.1062 18.8799 12.6237ZM9.29743 13.4862C9.85368 13.1487 10.6037 13.7612 10.3924 14.3562C10.2774 14.87 9.57493 15.0787 9.17368 14.7512C8.74493 14.4437 8.81243 13.705 9.29868 13.485L9.29743 13.4862ZM29.8749 13.4837C30.3462 13.1237 31.1249 13.5375 31.0674 14.1225C31.0999 14.6562 30.4262 15.06 29.9587 14.785C29.4437 14.5562 29.3899 13.7762 29.8749 13.485V13.4837ZM21.5749 14.5475C22.3524 14.2725 23.2774 14.6012 23.7199 15.285C24.3049 16.1187 23.9949 17.3887 23.0862 17.8675C22.1462 18.4337 20.7724 17.955 20.4237 16.92C20.0299 15.995 20.6049 14.8375 21.5737 14.5475H21.5749ZM17.0087 14.6387C17.8712 14.2387 19.0324 14.5737 19.4487 15.4412C19.9387 16.2862 19.5599 17.4625 18.6837 17.8987C17.8062 18.39 16.5674 18.0175 16.1437 17.1112C15.6674 16.2337 16.0899 15.0425 17.0087 14.6387V14.6387ZM12.4374 16.175C12.5037 15.6287 13.0274 15.2725 13.5562 15.235C13.8319 15.2641 14.0896 15.3859 14.2872 15.5805C14.4847 15.7751 14.6104 16.0309 14.6437 16.3062C14.6062 16.8687 14.1649 17.4162 13.5599 17.4137C12.8937 17.47 12.3099 16.8175 12.4374 16.175V16.175ZM25.9399 15.355C26.6237 14.9637 27.5724 15.5325 27.5424 16.305C27.5887 17.1237 26.5387 17.7 25.8587 17.22C25.1512 16.82 25.2062 15.695 25.9399 15.355ZM15.1524 18.2387C15.9499 18.0225 16.8649 18.3925 17.2562 19.115C17.6849 19.8425 17.5099 20.8525 16.8437 21.3875C15.9874 22.17 14.4112 21.855 13.9562 20.7875C13.4324 19.8087 14.0687 18.4962 15.1512 18.2375L15.1524 18.2387ZM23.8112 18.235C24.5874 18.0162 25.4999 18.31 25.9174 19.0062C26.4699 19.8025 26.2062 20.9912 25.3849 21.5037C24.5224 22.1 23.1899 21.7875 22.7149 20.855C22.1399 19.8912 22.7187 18.5287 23.8112 18.235V18.235ZM10.0112 19.1425C10.7012 18.8862 11.4662 19.635 11.1862 20.3087C11.0162 20.9212 10.1374 21.1487 9.68368 20.6962C9.15243 20.2712 9.34868 19.3275 10.0112 19.1425V19.1425ZM28.7224 20.12C28.7095 19.8448 28.8057 19.5756 28.9901 19.3711C29.1746 19.1665 29.4324 19.043 29.7074 19.0275C30.1799 19.1025 30.6399 19.4775 30.6024 19.9837C30.6462 20.6525 29.8274 21.1062 29.2474 20.7925C28.9762 20.6562 28.8374 20.3825 28.7224 20.12ZM6.61743 19.475C7.03243 19.2962 7.54618 19.65 7.45118 20.1037C7.42868 20.6175 6.65743 20.8162 6.37493 20.3862C6.12493 20.0875 6.27493 19.6287 6.61743 19.4737V19.475ZM32.8037 19.4637C33.0962 19.26 33.5662 19.4062 33.6812 19.7425C33.8774 20.11 33.5174 20.6125 33.0974 20.5512C32.5074 20.6037 32.3174 19.72 32.8037 19.4637ZM17.4074 21.93C18.4999 21.6512 19.6749 22.5475 19.6824 23.655C19.7524 24.7737 18.5949 25.765 17.4774 25.5075C16.6124 25.37 15.9337 24.55 15.9624 23.6912C15.9599 22.8687 16.5899 22.1037 17.4074 21.93V21.93ZM21.7349 21.9287C22.8437 21.6237 24.0537 22.5362 24.0362 23.6687C24.0949 24.7662 22.9737 25.725 21.8787 25.5062C20.8474 25.3762 20.0874 24.2625 20.3749 23.2775C20.5199 22.6225 21.0774 22.09 21.7349 21.9275V21.9287ZM13.3899 22.61C14.1574 22.4812 14.8774 23.3225 14.5662 24.04C14.3387 24.805 13.2087 25.0112 12.7087 24.3875C12.1237 23.7875 12.5612 22.6925 13.3899 22.61V22.61ZM26.0824 22.6437C26.7674 22.3612 27.6074 22.9437 27.5549 23.675C27.5824 24.4787 26.5449 25.0337 25.8762 24.5637C25.1174 24.1425 25.2562 22.9012 26.0824 22.6437V22.6437ZM29.6299 26.1437C29.3624 25.6525 29.8487 25.0012 30.4049 25.0925C30.6799 25.0875 30.8737 25.3012 31.0499 25.4812C31.0862 25.7725 31.1474 26.12 30.9012 26.3437C30.5674 26.76 29.8112 26.6412 29.6299 26.1437V26.1437ZM9.29493 25.2287C9.81368 24.89 10.5599 25.3962 10.4424 25.9912C10.3799 26.52 9.70493 26.8212 9.26118 26.5212C8.78368 26.25 8.80118 25.4762 9.29493 25.2287V25.2287ZM19.5362 26.3325C20.2149 26.0387 21.0799 26.62 21.0149 27.355C21.0649 28.1675 19.9962 28.73 19.3324 28.2425C18.5949 27.8237 18.7187 26.5912 19.5362 26.3325V26.3325ZM14.7937 27.4212C15.3712 27.1225 16.1462 27.6387 16.0937 28.2762C16.1112 28.7987 15.5937 29.2437 15.0687 29.1662C14.6349 29.1575 14.3524 28.7737 14.2124 28.41C14.2199 28.0137 14.3862 27.5725 14.7937 27.4225V27.4212ZM24.4012 27.4312C24.9962 27.0687 25.8412 27.5887 25.7849 28.2687C25.7999 28.9812 24.8449 29.4362 24.2912 28.9687C23.7562 28.6025 23.8212 27.7225 24.4012 27.4312ZM26.0724 31.4937C25.8074 31.1012 26.1187 30.6275 26.5474 30.5375C26.8937 30.6062 27.2599 30.8625 27.1862 31.255C27.1362 31.7887 26.3437 31.9512 26.0724 31.495V31.4937ZM12.8087 31.1525C12.9137 30.84 13.1687 30.5312 13.5424 30.6125C14.0862 30.65 14.2474 31.4575 13.7712 31.7062C13.3437 31.99 12.8462 31.6012 12.8087 31.1525ZM19.2087 31.5112C19.3124 31.0487 19.9187 30.825 20.3187 31.07C20.5837 31.1825 20.6612 31.4725 20.7287 31.72C20.693 31.8485 20.6597 31.9777 20.6287 32.1075C20.4649 32.2975 20.2537 32.4887 19.9812 32.4825C19.4749 32.5412 19.0174 31.9775 19.2074 31.5112H19.2087Z" fill="white"/>
</g>
<defs>
<filter id="filter0_d_305_2228" x="5.25049" y="7.00049" width="29.4858" height="26.9863" filterUnits="userSpaceOnUse" color-interpolation-filters="sRGB">
<feFlood flood-opacity="0" result="BackgroundImageFix"/>
<feColorMatrix in="SourceAlpha" type="matrix" values="0 0 0 0 0 0 0 0 0 0 0 0 0 0 0 0 0 0 127 0" result="hardAlpha"/>
<feOffset dy="0.5"/>
<feGaussianBlur stdDeviation="0.5"/>
<feColorMatrix type="matrix" values="0 0 0 0 0 0 0 0 0 0 0 0 0 0 0 0 0 0 0.204257 0"/>
<feBlend mode="normal" in2="BackgroundImageFix" result="effect1_dropShadow_305_2228"/>
<feBlend mode="normal" in="SourceGraphic" in2="effect1_dropShadow_305_2228" result="shape"/>
</filter>
<clipPath id="clip0_305_2228">
<rect width="40" height="40" fill="white"/>
</clipPath>
</defs>
</svg>
