<svg width="40" height="41" viewBox="0 0 40 41" fill="none" xmlns="http://www.w3.org/2000/svg">
<path d="M20 40.5C31.0457 40.5 40 31.5457 40 20.5C40 9.4543 31.0457 0.5 20 0.5C8.9543 0.5 0 9.4543 0 20.5C0 31.5457 8.9543 40.5 20 40.5Z" fill="#008CE7"/>
<path d="M23.8575 10.5049H14.7625L14.01 14.7136L22.2125 14.7261C26.2513 14.7261 27.45 16.1924 27.4113 18.6261C27.3938 19.8736 26.85 21.9836 26.62 22.6636C25.9988 24.4886 24.7188 26.5661 19.9213 26.5599L11.9488 26.5549L11.1963 30.7686H20.2675C23.4663 30.7686 24.8288 30.3949 26.2675 29.7311C29.46 28.2586 31.3613 25.1049 32.125 20.9886C33.2575 14.8636 31.845 10.5049 23.8563 10.5049H23.8575Z" fill="white"/>
<path d="M19.7589 20.2475C20.0551 19.0162 20.1489 18.5225 20.1489 18.5225H10.8414C8.46138 18.5225 8.12138 20.0725 7.89513 21.01C7.59888 22.2362 7.50513 22.7362 7.50513 22.7362H16.8139C19.1926 22.7362 19.5326 21.1862 19.7589 20.2475V20.2475Z" fill="white"/>
</svg>
