<svg width="40" height="41" viewBox="0 0 40 41" fill="none" xmlns="http://www.w3.org/2000/svg">
<path d="M20 40.5C31.0457 40.5 40 31.5457 40 20.5C40 9.4543 31.0457 0.5 20 0.5C8.9543 0.5 0 9.4543 0 20.5C0 31.5457 8.9543 40.5 20 40.5Z" fill="#C3A634"/>
<path fill-rule="evenodd" clip-rule="evenodd" d="M16.56 18.7625H21.9525V21.62H16.56V27.6425H19.9613C21.3075 27.6425 22.4088 27.4613 23.2663 27.0963C24.1238 26.7325 24.7963 26.2287 25.285 25.5837C25.7849 24.913 26.1252 24.1371 26.28 23.315C26.4606 22.3877 26.5485 21.4447 26.5425 20.5C26.5485 19.5553 26.4606 18.6123 26.28 17.685C26.1254 16.8629 25.785 16.0869 25.285 15.4162C24.7963 14.7712 24.1225 14.2675 23.2663 13.9037C22.4088 13.5387 21.3075 13.3575 19.9613 13.3575H16.56V18.7638V18.7625ZM13.1025 21.62H11.25V18.7638H13.1025V10.5H21.2887C22.8013 10.5 24.11 10.7625 25.2163 11.2837C26.3225 11.8075 27.225 12.5213 27.9263 13.4275C28.6262 14.3325 29.1475 15.3925 29.4888 16.6063C29.83 17.82 30 19.1187 30 20.5C30.0086 21.8153 29.8361 23.1255 29.4875 24.3937C29.1475 25.6062 28.6262 26.6675 27.925 27.5725C27.225 28.4788 26.3225 29.1925 25.2163 29.7162C24.11 30.2387 22.8 30.5 21.2887 30.5H13.1025V21.62Z" fill="white"/>
</svg>
