<svg width="40" height="40" viewBox="0 0 40 40" fill="none" xmlns="http://www.w3.org/2000/svg">
<path d="M40 20C40 23.9556 38.827 27.8224 36.6294 31.1114C34.4318 34.4004 31.3082 36.9638 27.6537 38.4776C23.9992 39.9913 19.9778 40.3874 16.0982 39.6157C12.2186 38.844 8.65492 36.9392 5.85787 34.1421C3.06082 31.3451 1.15601 27.7814 0.384303 23.9018C-0.387401 20.0222 0.0086656 16.0009 1.52242 12.3463C3.03617 8.69181 5.59962 5.56824 8.8886 3.37061C12.1776 1.17298 16.0444 0 20 0C25.3043 0 30.3914 2.10714 34.1421 5.85786C37.8929 9.60859 40 14.6957 40 20V20Z" fill="#531AF7"/>
<path fill-rule="evenodd" clip-rule="evenodd" d="M23.733 7.24601C21.4258 6.73198 19.0466 7.02948 16.9141 8.07493C14.7898 9.11635 13.0386 10.8342 11.8328 12.9513C11.5487 13.4502 11.2967 13.9677 11.0775 14.4998H9.5C8.11929 14.4998 7 15.6191 7 16.9998C7 18.3805 8.11929 19.4998 9.5 19.4998H10.0096C10.0039 19.6663 10.0011 19.833 10.0011 19.9998C10.0011 20.1666 10.0039 20.3333 10.0096 20.4998H9.5C8.11929 20.4998 7 21.6191 7 22.9998C7 24.3805 8.11929 25.4998 9.5 25.4998H11.0775C11.2967 26.0319 11.5487 26.5494 11.8328 27.0483C13.0386 29.1654 14.7898 30.8832 16.9141 31.9247C19.0466 32.9701 21.4258 33.2676 23.733 32.7536C26.0341 32.2409 28.0943 30.9601 29.6814 29.1459C30.5905 28.1067 30.485 26.5273 29.4459 25.6182C28.4067 24.7091 26.8273 24.8145 25.9182 25.8537C24.9736 26.9335 23.826 27.6103 22.6456 27.8732C21.4713 28.1349 20.2502 27.9916 19.115 27.4351C18.2569 27.0144 17.4578 26.3608 16.793 25.4998H21.5C22.8807 25.4998 24 24.3805 24 22.9998C24 21.6191 22.8807 20.4998 21.5 20.4998H15.0139C15.0054 20.3339 15.0011 20.1672 15.0011 19.9998C15.0011 19.8324 15.0054 19.6657 15.0139 19.4998H21.5C22.8807 19.4998 24 18.3805 24 16.9998C24 15.6191 22.8807 14.4998 21.5 14.4998H16.793C17.4578 13.6388 18.2569 12.9852 19.115 12.5645C20.2502 12.008 21.4713 11.8647 22.6456 12.1263C23.826 12.3893 24.9736 13.0661 25.9182 14.1459C26.8273 15.1851 28.4067 15.2905 29.4459 14.3814C30.485 13.4723 30.5905 11.8929 29.6814 10.8537C28.0943 9.03951 26.0341 7.75869 23.733 7.24601Z" fill="white"/>
</svg>
