<svg width="40" height="41" viewBox="0 0 40 41" fill="none" xmlns="http://www.w3.org/2000/svg">
<path d="M20 40.5C31.0457 40.5 40 31.5457 40 20.5C40 9.4543 31.0457 0.5 20 0.5C8.9543 0.5 0 9.4543 0 20.5C0 31.5457 8.9543 40.5 20 40.5Z" fill="#FF6600"/>
<path d="M19.9626 7.04419C27.4438 7.04419 33.4938 13.0942 33.4938 20.5742C33.4888 22.032 33.2534 23.4799 32.7963 24.8642H28.7638V13.4967L19.9638 22.2967L11.1638 13.4967V24.8642H7.13009C6.67348 23.4798 6.4385 22.0319 6.43384 20.5742C6.43384 13.0942 12.4838 7.04419 19.9638 7.04419H19.9626ZM17.9476 24.2754L20.0001 26.2942L22.0163 24.2767L25.8301 20.4267V27.5767H31.5138C30.3083 29.5595 28.6122 31.1982 26.5892 32.335C24.5661 33.4717 22.2844 34.0681 19.9638 34.0667C15.0863 34.0667 10.7963 31.4642 8.41384 27.5767H14.0963V20.4267L17.9463 24.2767L17.9476 24.2754Z" fill="white"/>
</svg>
