<svg width="40" height="40" viewBox="0 0 40 40" fill="none" xmlns="http://www.w3.org/2000/svg">
<path d="M40 20C40 23.9556 38.827 27.8224 36.6294 31.1114C34.4318 34.4004 31.3082 36.9638 27.6537 38.4776C23.9992 39.9913 19.9778 40.3874 16.0982 39.6157C12.2186 38.844 8.65492 36.9392 5.85787 34.1421C3.06082 31.3451 1.15601 27.7814 0.384303 23.9018C-0.387401 20.0222 0.0086656 16.0009 1.52242 12.3463C3.03617 8.69181 5.59962 5.56824 8.8886 3.37061C12.1776 1.17298 16.0444 0 20 0C25.3043 0 30.3914 2.10714 34.1421 5.85786C37.8929 9.60859 40 14.6957 40 20V20Z" fill="#F71A1A"/>
<path d="M15.0003 31.6668V8.3335H25.0003C26.3264 8.3335 27.5982 8.86028 28.5359 9.79796C29.4735 10.7356 30.0003 12.0074 30.0003 13.3335C30.0003 14.6596 29.4735 15.9313 28.5359 16.869C27.5982 17.8067 26.3264 18.3335 25.0003 18.3335H11.667" stroke="white" stroke-width="5" stroke-linecap="round" stroke-linejoin="round"/>
<path d="M25.0003 25H11.667" stroke="white" stroke-width="5" stroke-linecap="round" stroke-linejoin="round"/>
</svg>
