<svg width="40" height="41" viewBox="0 0 40 41" fill="none" xmlns="http://www.w3.org/2000/svg">
<path d="M20 40.5C31.0457 40.5 40 31.5457 40 20.5C40 9.4543 31.0457 0.5 20 0.5C8.9543 0.5 0 9.4543 0 20.5C0 31.5457 8.9543 40.5 20 40.5Z" fill="#26A17B"/>
<path fill-rule="evenodd" clip-rule="evenodd" d="M22.4025 22.2292V22.2267C22.265 22.2367 21.5562 22.2792 19.975 22.2792C18.7125 22.2792 17.8237 22.2417 17.5112 22.2267V22.2304C12.6512 22.0167 9.02375 21.1704 9.02375 20.1579C9.02375 19.1467 12.6512 18.3004 17.5112 18.0829V21.3879C17.8287 21.4104 18.7387 21.4642 19.9962 21.4642C21.505 21.4642 22.2613 21.4017 22.4025 21.3892V18.0854C27.2525 18.3017 30.8712 19.1479 30.8712 20.1579C30.8712 21.1704 27.2525 22.0142 22.4025 22.2292V22.2292ZM22.4025 17.7417V14.7842H29.17V10.2742H10.7438V14.7842H17.5112V17.7404C12.0112 17.9929 7.875 19.0829 7.875 20.3879C7.875 21.6929 12.0112 22.7817 17.5112 23.0354V32.5129H22.4025V23.0329C27.8938 22.7804 32.02 21.6917 32.02 20.3879C32.02 19.0842 27.8938 17.9954 22.4025 17.7417" fill="white"/>
</svg>
