<svg width="40" height="41" viewBox="0 0 40 41" fill="none" xmlns="http://www.w3.org/2000/svg">
<path d="M20 40.5C31.0457 40.5 40 31.5457 40 20.5C40 9.4543 31.0457 0.5 20 0.5C8.9543 0.5 0 9.4543 0 20.5C0 31.5457 8.9543 40.5 20 40.5Z" fill="#EF0027"/>
<path d="M27.415 12.891L9.375 9.57104L18.8687 33.461L32.0975 17.3435L27.415 12.891ZM27.125 14.3535L29.885 16.9773L22.3375 18.3435L27.125 14.3535ZM20.6975 18.0698L12.7425 11.4723L25.745 13.8648L20.6975 18.0698ZM20.1312 19.2373L18.8337 29.9623L11.84 12.3585L20.1312 19.236V19.2373ZM21.3312 19.806L29.69 18.2935L20.1025 29.9723L21.3312 19.806Z" fill="white"/>
</svg>
