<svg width="35" height="38" viewBox="0 0 35 38" fill="none" xmlns="http://www.w3.org/2000/svg">
<path fill-rule="evenodd" clip-rule="evenodd" d="M25.4956 1.14571C25.4085 0.498691 24.8581 0 24.1922 0C23.4657 0 22.8768 0.593483 22.8768 1.32558V2.79109H11.3399V1.32558L11.3279 1.14571C11.2408 0.498691 10.6904 0 10.0245 0C9.29805 0 8.70914 0.593483 8.70914 1.32558V2.82397C3.31862 3.19506 0 6.68766 0 12.323V28.3177C0 34.3657 3.72085 38 9.68289 38H24.5169C30.4861 38 34.1999 34.4266 34.1999 28.4514V12.323C34.217 6.68587 30.9094 3.1943 25.5076 2.82386V1.32558L25.4956 1.14571ZM22.8768 5.44228V7.14185L22.8888 7.32172C22.9759 7.96874 23.5263 8.46743 24.1922 8.46743C24.9186 8.46743 25.5076 7.87394 25.5076 7.14185V5.48146C29.4378 5.80847 31.5819 8.17519 31.5693 12.3189V13.0866H2.63093V12.323C2.63093 8.18178 4.78685 5.81003 8.70914 5.4817V7.14185L8.72115 7.32172C8.80825 7.96874 9.35859 8.46743 10.0245 8.46743C10.751 8.46743 11.3399 7.87394 11.3399 7.14185V5.44228H22.8768ZM2.63093 15.7378V28.3177C2.63093 32.8827 5.15586 35.3488 9.68306 35.3488H24.5171C29.0599 35.3488 31.5693 32.9342 31.5693 28.4514L31.5693 15.7378H2.63093ZM26.2225 21.3148C26.2225 20.5827 25.6336 19.9892 24.9072 19.9892L24.7124 20.0013C24.0704 20.0891 23.5755 20.6437 23.5755 21.3148C23.5755 22.0469 24.1645 22.6404 24.9072 22.6404L25.0857 22.6283C25.7277 22.5405 26.2225 21.9859 26.2225 21.3148ZM17.1246 19.9892C17.8511 19.9892 18.44 20.5827 18.44 21.3148C18.44 21.9859 17.9451 22.5405 17.3031 22.6283L17.1246 22.6404C16.3819 22.6404 15.793 22.0469 15.793 21.3148C15.793 20.6437 16.2878 20.0891 16.9299 20.0013L17.1246 19.9892ZM10.6403 21.3148C10.6403 20.5827 10.0514 19.9892 9.32493 19.9892L9.13019 20.0013C8.48816 20.0891 7.9933 20.6437 7.9933 21.3148C7.9933 22.0469 8.58222 22.6404 9.30868 22.6404L9.50342 22.6283C10.1455 22.5405 10.6403 21.9859 10.6403 21.3148ZM24.9072 26.8584C25.6336 26.8584 26.2225 27.4519 26.2225 28.184C26.2225 28.8551 25.7277 29.4097 25.0857 29.4974L24.9072 29.5095C24.1645 29.5095 23.5755 28.9161 23.5755 28.184C23.5755 27.5129 24.0704 26.9583 24.7124 26.8705L24.9072 26.8584ZM18.44 28.184C18.44 27.4519 17.8511 26.8584 17.1246 26.8584L16.9299 26.8705C16.2878 26.9583 15.793 27.5129 15.793 28.184C15.793 28.9161 16.3819 29.5095 17.1246 29.5095L17.3031 29.4974C17.9451 29.4097 18.44 28.8551 18.44 28.184ZM9.32493 26.8584C10.0514 26.8584 10.6403 27.4519 10.6403 28.184C10.6403 28.8551 10.1455 29.4097 9.50342 29.4974L9.30868 29.5095C8.58222 29.5095 7.9933 28.9161 7.9933 28.184C7.9933 27.5129 8.48816 26.9583 9.13019 26.8705L9.32493 26.8584Z" fill="white"/>
</svg>
