<svg width="41" height="37" viewBox="0 0 41 37" fill="none" xmlns="http://www.w3.org/2000/svg">
<path fill-rule="evenodd" clip-rule="evenodd" d="M20.6108 1.00014C13.7664 0.975322 7.40685 4.16233 3.84798 9.40064C0.289097 14.639 0.0501919 21.1642 3.21826 26.6002L3.60889 27.2835C3.92908 27.8213 3.99605 28.4513 3.79491 29.0335C3.23747 30.3623 2.77155 31.7204 2.39978 33.1002C2.39978 33.8002 2.623 34.2002 3.46008 34.1836C4.9427 33.8897 6.40282 33.5112 7.83147 33.0502C8.44678 32.8982 9.10102 32.9333 9.69163 33.1502C10.2311 33.3836 11.3286 33.9836 11.3658 33.9836C18.5335 37.3659 27.2876 36.4328 33.3695 31.6381C39.4515 26.8434 41.5988 19.1825 38.7668 12.3821C35.9349 5.58168 28.7116 1.05343 20.6108 1.00014V1.00014Z" stroke="white" stroke-width="1.875" stroke-linecap="round" stroke-linejoin="round"/>
<path fill-rule="evenodd" clip-rule="evenodd" d="M11.3097 19.3331C11.8234 19.3331 12.2398 18.9601 12.2398 18.5C12.2398 18.04 11.8234 17.667 11.3097 17.667C10.7961 17.667 10.3796 18.04 10.3796 18.5C10.3796 18.9601 10.7961 19.3331 11.3097 19.3331Z" fill="white" stroke="white" stroke-width="1.875" stroke-linecap="round" stroke-linejoin="round"/>
<path fill-rule="evenodd" clip-rule="evenodd" d="M20.6112 19.3331C21.1249 19.3331 21.5413 18.9601 21.5413 18.5C21.5413 18.04 21.1249 17.667 20.6112 17.667C20.0976 17.667 19.6812 18.04 19.6812 18.5C19.6812 18.9601 20.0976 19.3331 20.6112 19.3331Z" fill="white" stroke="white" stroke-width="1.875" stroke-linecap="round" stroke-linejoin="round"/>
<path fill-rule="evenodd" clip-rule="evenodd" d="M29.9118 19.3331C30.4254 19.3331 30.8419 18.9601 30.8419 18.5C30.8419 18.04 30.4254 17.667 29.9118 17.667C29.3981 17.667 28.9817 18.04 28.9817 18.5C28.9817 18.9601 29.3981 19.3331 29.9118 19.3331Z" fill="white" stroke="white" stroke-width="1.875" stroke-linecap="round" stroke-linejoin="round"/>
</svg>
