<svg width="34" height="40" viewBox="0 0 34 40" fill="none" xmlns="http://www.w3.org/2000/svg">
<path fill-rule="evenodd" clip-rule="evenodd" d="M17.0722 0H16.9296C10.1913 0 4.01309 4.88913 3.4137 11.3619C3.37372 11.825 3.34648 12.2981 3.32888 12.8078L3.30425 13.9995L3.29938 15.0679L3.32947 14.9461C3.05139 16.3021 2.41049 17.5599 1.47307 18.5876L1.33873 18.7604C0.536073 19.9797 0.0748855 21.3911 0.00349936 22.8484L0.00180788 23.3249C-0.0391703 25.2416 0.617638 27.1383 1.85326 28.6447C3.52888 30.4139 5.69793 31.4692 8.02593 31.6932C13.98 32.3398 20.004 32.3398 25.9747 31.6915C28.2868 31.4787 30.4623 30.4202 32.0677 28.7164C33.2798 27.2662 33.9414 25.526 33.9981 23.7241L34 22.9175C33.9337 21.396 33.4696 19.9834 32.6573 18.7694L32.5339 18.6109L32.2325 18.2564C31.5552 17.4105 31.0606 16.4361 30.7792 15.3938L30.6901 15.0195L30.6716 14.6271C30.6661 14.4505 30.6633 14.2548 30.6625 14.0103L30.6622 12.6641C30.6576 12.1492 30.6423 11.783 30.6067 11.3707C29.9869 4.88571 23.8069 0 17.0722 0ZM16.9308 2.79065H17.0734C22.4684 2.79065 27.39 6.68146 27.8627 11.6265C27.8906 11.9511 27.9031 12.2608 27.9068 12.721L27.9122 14.5302C27.9183 14.8196 27.9296 15.0602 27.949 15.331L27.9748 15.5163L28.1046 16.0679C28.4892 17.527 29.1798 18.8881 30.1306 20.0617L30.4064 20.3851L30.3759 20.3343C30.9033 21.1225 31.2037 22.0371 31.2457 22.9802L31.2443 23.3071C31.2761 24.6193 30.8411 25.866 30.018 26.8533C28.9303 28.0039 27.3753 28.7605 25.7039 28.9144C19.9066 29.5437 14.0798 29.5437 8.30454 28.9166C6.61483 28.754 5.05881 27.9969 3.90856 26.7861C3.16291 25.8712 2.73254 24.6285 2.75956 23.3548L2.75988 22.9174L2.79482 22.5364C2.87897 21.899 3.09195 21.253 3.42207 20.6581L3.58949 20.3811C4.81676 19.0007 5.65902 17.3222 6.02999 15.5133L6.05876 15.2297L6.07181 13.3911L6.10393 12.4584C6.11849 12.1641 6.13714 11.8845 6.16053 11.6135C6.61725 6.68169 11.5342 2.79065 16.9308 2.79065ZM3.58949 20.3811C3.5598 20.4144 3.5299 20.4477 3.49976 20.4807L3.5983 20.3665L3.58949 20.3811ZM22.2163 35.3812C21.6231 34.8982 20.7554 34.9933 20.2782 35.5938C20.0714 35.854 19.8319 36.0875 19.5655 36.2885C18.6619 36.9972 17.5342 37.3128 16.4132 37.1793C15.2938 37.0459 14.2762 36.4762 13.5858 35.5989C13.1114 34.9962 12.2441 34.8969 11.6487 35.3771C11.0533 35.8573 10.9552 36.7352 11.4295 37.3379C12.5744 38.7925 14.2519 39.7318 16.091 39.9509C17.9284 40.1697 19.7786 39.6519 21.2338 38.5101C21.6658 38.1844 22.0735 37.787 22.4263 37.3431C22.9035 36.7426 22.8095 35.8643 22.2163 35.3812Z" fill="white"/>
</svg>
