<svg width="35" height="39" viewBox="0 0 35 39" fill="none" xmlns="http://www.w3.org/2000/svg">
<path fill-rule="evenodd" clip-rule="evenodd" d="M17.5097 0C11.0915 0 5.88851 4.65784 5.88851 10.4036C5.88851 16.1493 11.0915 20.8072 17.5097 20.8072C23.9279 20.8072 29.1308 16.1493 29.1308 10.4036C29.1308 4.65784 23.9279 0 17.5097 0ZM17.5087 2.823C22.1853 2.823 25.9765 6.21696 25.9765 10.4036C25.9765 14.5903 22.1853 17.9843 17.5087 17.9843C12.832 17.9843 9.04087 14.5903 9.04087 10.4036C9.04087 6.21696 12.832 2.823 17.5087 2.823ZM12.7532 25.0007C11.052 25.106 9.33234 25.3224 7.63613 25.6465C4.36226 26.2476 1.74312 27.4487 0.628336 29.4447C0.207873 30.2253 -0.0035226 31.0611 4.43953e-05 31.9072C-0.001217 32.7473 0.208467 33.5842 0.613852 34.3497C1.68425 36.3227 3.99832 37.4393 7.12304 38.0582L7.68278 38.1623C9.33295 38.4942 11.0531 38.7177 12.7848 38.8226C12.9323 38.8611 13.2838 38.8969 13.6674 38.9144L13.983 38.925C14.1453 38.9283 14.3294 38.9291 14.6038 38.9291C17.0928 39.0512 19.6731 39.0157 22.2415 38.8207C23.6101 38.7373 24.9881 38.5777 26.3544 38.3439L27.3767 38.1547C30.751 37.5614 33.2775 36.4329 34.3845 34.352C35.2051 32.807 35.2051 31.0141 34.3848 29.4698C33.2807 27.394 30.7862 26.275 27.3511 25.6442C26.0034 25.3877 24.6339 25.1979 23.2546 25.0767L22.2463 25.0007C19.088 24.7523 15.9115 24.7523 12.7532 25.0007ZM21.9705 27.8128L21.9983 27.8147C23.5813 27.9141 25.1546 28.1121 26.7067 28.4075C29.2583 28.8761 30.9899 29.6529 31.5377 30.6828C31.9502 31.4593 31.9502 32.3617 31.5373 33.139C31.0254 34.1012 29.4703 34.8447 27.2226 35.2991L26.7304 35.392C25.1477 35.7068 23.5796 35.9097 22.0012 36.0061C19.552 36.1918 17.1173 36.2253 14.6888 36.1082L13.8278 36.0951C13.5888 36.0842 13.3873 36.0637 13.2007 36.0302C11.7225 35.9308 10.3923 35.7734 9.10083 35.5452L8.32969 35.3997C5.77022 34.9525 4.02337 34.1723 3.457 33.1284C3.25882 32.754 3.15296 32.3315 3.1536 31.9038C3.15182 31.4784 3.25629 31.0654 3.45907 30.6888C4.00976 29.7031 5.86097 28.8542 8.28223 28.4096C9.8456 28.1109 11.4182 27.913 13.0004 27.8148C16.0041 27.5789 18.9959 27.5789 21.9705 27.8128Z" fill="white"/>
</svg>
