<svg width="25" height="25" viewBox="0 0 25 25" fill="none" xmlns="http://www.w3.org/2000/svg">
<path d="M14.6164 22.3481C15.9096 22.12 17.1453 21.6395 18.2529 20.9339C19.3604 20.2283 20.3182 19.3115 21.0714 18.2358C21.8246 17.16 22.3586 15.9465 22.6428 14.6644C22.9271 13.3823 22.956 12.0568 22.728 10.7635C22.4999 9.47025 22.0194 8.23456 21.3138 7.127C20.6082 6.01945 19.6914 5.06171 18.6156 4.30848C17.5399 3.55525 16.3264 3.02127 15.0443 2.73704C13.7622 2.45281 12.4367 2.42388 11.1434 2.65192C9.85013 2.87996 8.61445 3.36049 7.50689 4.06609C6.39933 4.77168 5.4416 5.68851 4.68836 6.76424C3.93513 7.83996 3.40116 9.05352 3.11693 10.3356C2.83269 11.6177 2.80377 12.9432 3.03181 14.2365C3.25985 15.5298 3.74038 16.7654 4.44597 17.873C5.15157 18.9806 6.0684 19.9383 7.14412 20.6915C8.21985 21.4448 9.4334 21.9787 10.7155 22.263C11.9976 22.5472 13.3231 22.5761 14.6164 22.3481L14.6164 22.3481Z" stroke="#696F8C" stroke-width="1.6"/>
<path d="M12.8799 12.5L12.8799 18.5" stroke="#696F8C" stroke-width="1.6" stroke-linecap="round"/>
<path d="M12.8799 7.5L12.8799 6.5" stroke="#696F8C" stroke-width="1.6" stroke-linecap="round"/>
</svg>
