<svg width="24" height="24" viewBox="0 0 24 24" fill="none" xmlns="http://www.w3.org/2000/svg">
<path d="M12.8245 3.15319L19.2082 4.8555C19.6751 4.98002 20 5.4029 20 5.88615V12.3081C20 14.448 18.9306 16.4463 17.1501 17.6333L12.5917 20.6722C12.2334 20.9111 11.7666 20.9111 11.4083 20.6722L6.84992 17.6333C5.06945 16.4463 4 14.448 4 12.3081V5.88615C4 5.4029 4.32489 4.98002 4.79183 4.8555L11.1755 3.15319C11.7157 3.00913 12.2843 3.00913 12.8245 3.15319Z" stroke="#696F8C" stroke-width="1.70667" stroke-linecap="round"/>
<path d="M9.33328 11.4667L11.2781 13.4114C11.3822 13.5156 11.551 13.5156 11.6552 13.4114L15.2 9.86667" stroke="#696F8C" stroke-width="1.70667" stroke-linecap="round"/>
</svg>
